<svg xmlns="http://www.w3.org/2000/svg" xmlns:xlink="http://www.w3.org/1999/xlink" width="350" height="83.83" viewBox="0 0 350 83.83"><defs><style>.a{fill:none;}.b,.h{fill:#fff;}.c{fill:#13ff5a;}.d{fill:#32420b;}.e{fill:#2cd949;}.f{clip-path:url(#a);}.g{fill:url(#b);}.h{fill-rule:evenodd;}</style><clipPath id="a"><path class="a" d="M75.56,26.94l1.57-5.68a10.72,10.72,0,0,1-1.48-5.47A11.11,11.11,0,0,1,94.57,8.05a10.86,10.86,0,0,1,3.24,7.74,11,11,0,0,1-11.07,11,11.21,11.21,0,0,1-5.3-1.34Z"/></clipPath><linearGradient id="b" x1="67.32" y1="76.15" x2="67.32" y2="76.69" gradientTransform="matrix(41.63, 0, 0, -40.93, -2715.83, 3144.02)" gradientUnits="userSpaceOnUse"><stop offset="0" stop-color="#20b038"/><stop offset="0.02" stop-color="#20b038"/><stop offset="0.02" stop-color="#21b139"/><stop offset="0.03" stop-color="#22b139"/><stop offset="0.04" stop-color="#22b13a"/><stop offset="0.05" stop-color="#23b23a"/><stop offset="0.05" stop-color="#23b23b"/><stop offset="0.06" stop-color="#24b23b"/><stop offset="0.07" stop-color="#24b23b"/><stop offset="0.08" stop-color="#25b33c"/><stop offset="0.09" stop-color="#25b33c"/><stop offset="0.1" stop-color="#26b43d"/><stop offset="0.11" stop-color="#27b43d"/><stop offset="0.12" stop-color="#27b43e"/><stop offset="0.13" stop-color="#28b53e"/><stop offset="0.13" stop-color="#28b53f"/><stop offset="0.14" stop-color="#29b53f"/><stop offset="0.15" stop-color="#29b53f"/><stop offset="0.16" stop-color="#2ab640"/><stop offset="0.16" stop-color="#2ab640"/><stop offset="0.17" stop-color="#2bb640"/><stop offset="0.18" stop-color="#2bb741"/><stop offset="0.19" stop-color="#2cb741"/><stop offset="0.2" stop-color="#2cb742"/><stop offset="0.2" stop-color="#2db842"/><stop offset="0.21" stop-color="#2db842"/><stop offset="0.22" stop-color="#2eb843"/><stop offset="0.23" stop-color="#2eb843"/><stop offset="0.23" stop-color="#2fb944"/><stop offset="0.24" stop-color="#2fb944"/><stop offset="0.25" stop-color="#30b944"/><stop offset="0.26" stop-color="#30ba45"/><stop offset="0.27" stop-color="#31ba45"/><stop offset="0.27" stop-color="#31ba46"/><stop offset="0.28" stop-color="#32ba46"/><stop offset="0.29" stop-color="#32bb46"/><stop offset="0.3" stop-color="#33bb47"/><stop offset="0.3" stop-color="#33bb47"/><stop offset="0.31" stop-color="#34bc48"/><stop offset="0.32" stop-color="#34bc48"/><stop offset="0.33" stop-color="#35bc48"/><stop offset="0.34" stop-color="#35bd49"/><stop offset="0.34" stop-color="#36bd49"/><stop offset="0.35" stop-color="#36bd49"/><stop offset="0.36" stop-color="#37bd4a"/><stop offset="0.37" stop-color="#37be4a"/><stop offset="0.38" stop-color="#38be4b"/><stop offset="0.38" stop-color="#38be4b"/><stop offset="0.39" stop-color="#39bf4b"/><stop offset="0.4" stop-color="#39bf4c"/><stop offset="0.41" stop-color="#3abf4c"/><stop offset="0.41" stop-color="#3ac04d"/><stop offset="0.42" stop-color="#3bc04d"/><stop offset="0.43" stop-color="#3bc04d"/><stop offset="0.44" stop-color="#3cc04e"/><stop offset="0.45" stop-color="#3cc14e"/><stop offset="0.45" stop-color="#3dc14f"/><stop offset="0.46" stop-color="#3dc14f"/><stop offset="0.47" stop-color="#3ec24f"/><stop offset="0.48" stop-color="#3ec250"/><stop offset="0.48" stop-color="#3fc250"/><stop offset="0.49" stop-color="#3fc250"/><stop offset="0.5" stop-color="#40c351"/><stop offset="0.51" stop-color="#40c351"/><stop offset="0.52" stop-color="#41c352"/><stop offset="0.52" stop-color="#41c452"/><stop offset="0.53" stop-color="#42c452"/><stop offset="0.54" stop-color="#42c453"/><stop offset="0.55" stop-color="#43c553"/><stop offset="0.55" stop-color="#43c554"/><stop offset="0.56" stop-color="#44c554"/><stop offset="0.57" stop-color="#44c554"/><stop offset="0.58" stop-color="#45c655"/><stop offset="0.59" stop-color="#45c655"/><stop offset="0.59" stop-color="#46c656"/><stop offset="0.6" stop-color="#46c756"/><stop offset="0.61" stop-color="#47c756"/><stop offset="0.62" stop-color="#47c757"/><stop offset="0.63" stop-color="#48c857"/><stop offset="0.63" stop-color="#48c858"/><stop offset="0.64" stop-color="#49c858"/><stop offset="0.65" stop-color="#49c858"/><stop offset="0.66" stop-color="#4ac959"/><stop offset="0.66" stop-color="#4ac959"/><stop offset="0.67" stop-color="#4bc959"/><stop offset="0.68" stop-color="#4bca5a"/><stop offset="0.69" stop-color="#4cca5a"/><stop offset="0.7" stop-color="#4cca5b"/><stop offset="0.7" stop-color="#4dcb5b"/><stop offset="0.71" stop-color="#4dcb5b"/><stop offset="0.72" stop-color="#4ecb5c"/><stop offset="0.73" stop-color="#4ecb5c"/><stop offset="0.73" stop-color="#4fcc5d"/><stop offset="0.74" stop-color="#4fcc5d"/><stop offset="0.75" stop-color="#50cc5d"/><stop offset="0.76" stop-color="#50cd5e"/><stop offset="0.77" stop-color="#51cd5e"/><stop offset="0.77" stop-color="#51cd5f"/><stop offset="0.78" stop-color="#52cd5f"/><stop offset="0.79" stop-color="#52ce5f"/><stop offset="0.8" stop-color="#53ce60"/><stop offset="0.8" stop-color="#53ce60"/><stop offset="0.81" stop-color="#54cf61"/><stop offset="0.82" stop-color="#54cf61"/><stop offset="0.83" stop-color="#55cf61"/><stop offset="0.84" stop-color="#55d062"/><stop offset="0.84" stop-color="#56d062"/><stop offset="0.85" stop-color="#56d062"/><stop offset="0.86" stop-color="#57d063"/><stop offset="0.87" stop-color="#57d163"/><stop offset="0.88" stop-color="#58d164"/><stop offset="0.88" stop-color="#58d164"/><stop offset="0.89" stop-color="#59d264"/><stop offset="0.9" stop-color="#59d265"/><stop offset="0.91" stop-color="#5ad265"/><stop offset="0.91" stop-color="#5ad366"/><stop offset="0.92" stop-color="#5bd366"/><stop offset="0.93" stop-color="#5bd366"/><stop offset="0.94" stop-color="#5cd367"/><stop offset="0.95" stop-color="#5cd467"/><stop offset="0.95" stop-color="#5dd468"/><stop offset="0.96" stop-color="#5dd468"/><stop offset="0.97" stop-color="#5ed568"/><stop offset="0.98" stop-color="#5ed569"/><stop offset="0.98" stop-color="#5fd569"/><stop offset="0.99" stop-color="#5fd569"/><stop offset="1" stop-color="#60d66a"/></linearGradient></defs><path class="b" d="M103.88,66.88a1.45,1.45,0,0,1-1-.41,1.37,1.37,0,0,1-.44-1V58.8a2.24,2.24,0,0,1,.33-1.27c.22-.33.39-.56.5-.71l16.6-18.75H104.43a1.38,1.38,0,0,1-1-.41,1.36,1.36,0,0,1-.42-1V29.83a1.36,1.36,0,0,1,.42-1,1.34,1.34,0,0,1,1-.41h28.92a1.44,1.44,0,0,1,1,.41,1.31,1.31,0,0,1,.44,1v6.54a2.44,2.44,0,0,1-.22,1.07,3.62,3.62,0,0,1-.49.8L118.23,57.09h15.83a1.36,1.36,0,0,1,1,.42,1.34,1.34,0,0,1,.41,1v6.93a1.4,1.4,0,0,1-1.43,1.43Z"/><path class="b" d="M149.13,67.43a12.32,12.32,0,0,1-5.42-1.16,9.42,9.42,0,0,1-3.74-3.1,7.5,7.5,0,0,1-1.34-4.37,7.25,7.25,0,0,1,3.21-6.24,20.41,20.41,0,0,1,8.61-3.16l6.37-1V48a4.74,4.74,0,0,0-.55-2.55,2.43,2.43,0,0,0-2.2-.86,3.53,3.53,0,0,0-1.86.44,4.78,4.78,0,0,0-1.32,1.27,1.86,1.86,0,0,1-1.43.6h-7.75a1.29,1.29,0,0,1-.91-.33,1,1,0,0,1-.3-.88,5.45,5.45,0,0,1,.82-2.33,9.44,9.44,0,0,1,2.39-2.64,13.49,13.49,0,0,1,4.21-2.15,20.17,20.17,0,0,1,6.21-.85,21.33,21.33,0,0,1,6.32.83,11.87,11.87,0,0,1,4.34,2.31,9,9,0,0,1,2.53,3.6,12.81,12.81,0,0,1,.83,4.7V65.45a1.4,1.4,0,0,1-1.43,1.43h-8a1.51,1.51,0,0,1-1.05-.41,1.37,1.37,0,0,1-.44-1V63.69a7,7,0,0,1-1.89,1.92,10.17,10.17,0,0,1-2.75,1.32A11.58,11.58,0,0,1,149.13,67.43Zm3.19-7.2a4.94,4.94,0,0,0,2.41-.58,3.91,3.91,0,0,0,1.63-1.79,7,7,0,0,0,.57-3v-.39l-4,.77a6.35,6.35,0,0,0-2.86,1.1,2.15,2.15,0,0,0-.83,1.65,1.83,1.83,0,0,0,.39,1.16,2.61,2.61,0,0,0,1.07.79A3.73,3.73,0,0,0,152.32,60.23Z"/><path class="b" d="M175,77.32a1.4,1.4,0,0,1-1.43-1.43V39.72A1.4,1.4,0,0,1,175,38.29h7.75a1.4,1.4,0,0,1,1.43,1.43v1.82a10.07,10.07,0,0,1,8.36-3.8,13.24,13.24,0,0,1,4.64.77,9.71,9.71,0,0,1,3.6,2.34,10.87,10.87,0,0,1,2.42,4,19.1,19.1,0,0,1,1,5.67c0,.77.06,1.46.06,2.08s0,1.34-.06,2.15a17.41,17.41,0,0,1-1,5.44,11.68,11.68,0,0,1-2.42,4,10.07,10.07,0,0,1-3.63,2.44,12.61,12.61,0,0,1-4.67.83,11.09,11.09,0,0,1-4.46-.85,7.67,7.67,0,0,1-3.19-2.67v12a1.31,1.31,0,0,1-.44,1,1.37,1.37,0,0,1-1,.41Zm13.8-18.47a3.76,3.76,0,0,0,2.22-.57,3.29,3.29,0,0,0,1.16-1.6,9.69,9.69,0,0,0,.47-2.34,18.71,18.71,0,0,0,0-3.51,9.69,9.69,0,0,0-.47-2.34A3.22,3.22,0,0,0,191,46.9a3.69,3.69,0,0,0-2.22-.58,3.85,3.85,0,0,0-2.28.6,3.26,3.26,0,0,0-1.21,1.6,7.48,7.48,0,0,0-.42,2.2c0,.77,0,1.45,0,2.06s0,1.29,0,2.06a5.46,5.46,0,0,0,.47,2,3.43,3.43,0,0,0,1.24,1.43A3.88,3.88,0,0,0,188.82,58.85Z"/><path class="b" d="M211.08,66.88a1.45,1.45,0,0,1-1-.41,1.37,1.37,0,0,1-.44-1V29.83a1.34,1.34,0,0,1,.44-1,1.41,1.41,0,0,1,1-.41h26.5a1.44,1.44,0,0,1,1,.41,1.31,1.31,0,0,1,.44,1v7a1.36,1.36,0,0,1-.44,1,1.43,1.43,0,0,1-1,.44H221.25v6h15.23a1.45,1.45,0,0,1,1,.42,1.3,1.3,0,0,1,.44,1v6.93a1.33,1.33,0,0,1-.44,1,1.48,1.48,0,0,1-1,.41H221.25V65.45a1.42,1.42,0,0,1-.41,1,1.4,1.4,0,0,1-1,.41Z"/><path class="b" d="M257.7,67.43A20.67,20.67,0,0,1,249.54,66a10.92,10.92,0,0,1-5.09-4.21,13.75,13.75,0,0,1-2-6.68c0-.77-.05-1.61-.05-2.53s0-1.75.05-2.52a13,13,0,0,1,2.09-6.71,11.77,11.77,0,0,1,5.2-4.18,22.76,22.76,0,0,1,15.88,0,11.77,11.77,0,0,1,5.2,4.18,13.06,13.06,0,0,1,2.09,6.71c.07.77.11,1.61.11,2.52s0,1.76-.11,2.53a13.75,13.75,0,0,1-2,6.68A11,11,0,0,1,265.86,66,20.74,20.74,0,0,1,257.7,67.43Zm0-7.75a3.07,3.07,0,0,0,2.8-1.21,7.42,7.42,0,0,0,.88-3.63c0-.55.06-1.3.06-2.26s0-1.7-.06-2.25a7.47,7.47,0,0,0-.88-3.6,3,3,0,0,0-2.8-1.24A3,3,0,0,0,255,46.73a8,8,0,0,0-.93,3.6q-.06.83-.06,2.25c0,1,0,1.71.06,2.26a8,8,0,0,0,.93,3.63A3,3,0,0,0,257.7,59.68Z"/><path class="b" d="M279.19,66.88a1.42,1.42,0,0,1-1.43-1.43V39.72a1.42,1.42,0,0,1,1.43-1.43h8a1.4,1.4,0,0,1,1.42,1.43v2a12.68,12.68,0,0,1,3.77-2.53,11.27,11.27,0,0,1,4.65-.94h2.47a1.48,1.48,0,0,1,1,.41,1.33,1.33,0,0,1,.44,1v7.09a1.31,1.31,0,0,1-.44,1,1.44,1.44,0,0,1-1,.41h-6.16a3.67,3.67,0,0,0-4.07,4.07V65.45a1.4,1.4,0,0,1-1.43,1.43Z"/><path class="b" d="M305.91,66.88a1.4,1.4,0,0,1-1.43-1.43V39.72a1.4,1.4,0,0,1,1.43-1.43h7.53a1.4,1.4,0,0,1,1,.41,1.42,1.42,0,0,1,.41,1v1.82a11.21,11.21,0,0,1,3-2.51,9.92,9.92,0,0,1,4.68-1.29q6.44-.16,8.68,4.62a10.06,10.06,0,0,1,3.61-3.3,9.92,9.92,0,0,1,5-1.32A10.27,10.27,0,0,1,345,39a9.35,9.35,0,0,1,3.66,4A15.31,15.31,0,0,1,350,50v15.5a1.4,1.4,0,0,1-1.43,1.43h-8a1.4,1.4,0,0,1-1.42-1.43V50.28a5.07,5.07,0,0,0-.44-2.29,3.17,3.17,0,0,0-4.35-1.26A2.88,2.88,0,0,0,333.21,48a5.23,5.23,0,0,0-.42,2.29V65.45a1.4,1.4,0,0,1-1.43,1.43h-8a1.4,1.4,0,0,1-1-.41,1.42,1.42,0,0,1-.41-1V50.28a5.07,5.07,0,0,0-.44-2.29,2.88,2.88,0,0,0-2.75-1.67,2.88,2.88,0,0,0-1.59.44A3.15,3.15,0,0,0,316,48a4.88,4.88,0,0,0-.44,2.26V65.45a1.4,1.4,0,0,1-1.43,1.43Z"/><path class="c" d="M14.31,16.26H74.76A11.68,11.68,0,0,1,86.44,27.94V69.53A11.67,11.67,0,0,1,74.77,81.2H14.31A11.68,11.68,0,0,1,2.63,69.52V27.93A11.67,11.67,0,0,1,14.31,16.26Z"/><path class="d" d="M14.31,18.89H74.77a9,9,0,0,1,9,9.05V69.52a9,9,0,0,1-9,9H14.31a9,9,0,0,1-9-9V27.94a9,9,0,0,1,9-9m0-5.26A14.33,14.33,0,0,0,0,27.94V69.52A14.33,14.33,0,0,0,14.31,83.83H74.77a14.32,14.32,0,0,0,14.3-14.31V27.94a14.32,14.32,0,0,0-14.3-14.31Z"/><path class="e" d="M83.81,49V69.52a9,9,0,0,1-9,9H14.31a9,9,0,0,1-9-9V49Z"/><path class="d" d="M44.77,56.28h0a12.4,12.4,0,0,1-8.83-3.66L6,22.59a2.63,2.63,0,0,1,3.73-3.72l29.92,30A7.16,7.16,0,0,0,44.77,51h0a7.19,7.19,0,0,0,5.11-2.11L80,18.78a2.63,2.63,0,0,1,3.72,3.72L53.61,52.62A12.42,12.42,0,0,1,44.77,56.28Z"/><path class="d" d="M6.93,80.63a2.64,2.64,0,0,1-1.86-4.5l28.11-28a2.63,2.63,0,0,1,3.72,3.73l-28.11,28A2.62,2.62,0,0,1,6.93,80.63Z"/><path class="d" d="M81.19,80.06a2.64,2.64,0,0,1-1.86-.77L51.82,51.94a2.63,2.63,0,0,1,3.71-3.73L83,75.56a2.63,2.63,0,0,1-1.85,4.5Z"/><path class="b" d="M40.82,29H28.5a2.64,2.64,0,0,1,0-5.27H40.82a2.64,2.64,0,0,1,0,5.27Z"/><path class="d" d="M75.16,31.77a4.44,4.44,0,0,1-4.27-5.62l1.18-4.24a15.42,15.42,0,0,1-1.24-6.11A15.62,15.62,0,0,1,75.44,4.67,16,16,0,0,1,98,4.61a15.59,15.59,0,0,1,4.68,11.18A15.94,15.94,0,0,1,80.83,30.45l-4.55,1.18A4.71,4.71,0,0,1,75.16,31.77Zm6.57-6.9A10.47,10.47,0,0,0,97.2,15.79a10.19,10.19,0,0,0-3.06-7.32,10.56,10.56,0,0,0-14.86,0,10.16,10.16,0,0,0-3,7.27A10.06,10.06,0,0,0,77.66,21l.21.36-1.28,4.61,4.79-1.24Z"/><path class="d" d="M86.73,4.44a11.44,11.44,0,0,1,8.11,3.32,11.21,11.21,0,0,1,3.36,8A11.42,11.42,0,0,1,86.74,27.14h0a11.2,11.2,0,0,1-5.46-1.39l-6.09,1.58,1.63-5.87a11,11,0,0,1-1.52-5.67A11.4,11.4,0,0,1,86.73,4.44m0-3.44A14.88,14.88,0,0,0,76.14,5.38,14.63,14.63,0,0,0,71.83,15.8a14.38,14.38,0,0,0,1.3,6l-1.28,4.58a3.44,3.44,0,0,0,3.31,4.36,3.56,3.56,0,0,0,.86-.11l4.88-1.27a14.62,14.62,0,0,0,5.81,1.18,14.87,14.87,0,0,0,14.93-14.78A14.59,14.59,0,0,0,97.26,5.32,14.84,14.84,0,0,0,86.73,1Z"/><g class="f"><path class="g" d="M75.56,4.84v22.1H97.81V4.84Z"/></g><path class="b" d="M75.16,27.33l1.63-5.87a11,11,0,0,1-1.52-5.67,11.49,11.49,0,0,1,19.57-8,11.21,11.21,0,0,1,3.36,8,11.48,11.48,0,0,1-17,10Zm6.36-3.62.35.21a9.4,9.4,0,0,0,4.86,1.31,9.5,9.5,0,0,0,9.53-9.43,9.38,9.38,0,0,0-2.79-6.67,9.56,9.56,0,0,0-16.29,6.66,9.3,9.3,0,0,0,1.46,5l.22.36-1,3.49,3.63-.95Z"/><path class="h" d="M83.86,11c-.21-.48-.44-.49-.63-.49h-.57a1.08,1.08,0,0,0-.77.36,3.19,3.19,0,0,0-1,2.36,5.53,5.53,0,0,0,1.17,2.94A11.75,11.75,0,0,0,87,20.48c2.43.95,2.91.76,3.44.7a3,3,0,0,0,1.94-1.35,2.42,2.42,0,0,0,.16-1.35c-.07-.11-.27-.18-.55-.33s-1.69-.83-2-.93-.45-.13-.64.14a11.06,11.06,0,0,1-.91,1.11c-.16.18-.34.21-.62.07a7.76,7.76,0,0,1-2.31-1.41,9.14,9.14,0,0,1-1.6-2,.41.41,0,0,1,.13-.58,5.78,5.78,0,0,0,.43-.5,2.05,2.05,0,0,0,.29-.47.5.5,0,0,0,0-.49c-.07-.13-.62-1.53-.88-2.09Z"/></svg>